<svg xmlns="http://www.w3.org/2000/svg" shape-rendering="geometricPrecision" text-rendering="geometricPrecision" image-rendering="optimizeQuality" fill-rule="evenodd" clip-rule="evenodd" viewBox="0 0 512 278.862"><path fill-rule="nonzero" d="M115.895 82.821l24.793 24.794-28.549 28.549-25.202-25.202c-33.462 38.969-53.685 89.641-53.685 145.037H0C0 185.311 28.655 121.31 74.982 74.982 121.311 28.655 185.311 0 256.001 0c55.455 0 106.794 17.638 148.714 47.607l-26.682 22.017c-29.756-19.522-64.47-32.111-101.845-35.468v29.067h-40.377V34.156c-45.225 4.064-86.554 21.642-119.916 48.665zm117.429 138.04c-38.905 32.142 13.13 86.243 48.237 40.188L440.178 63.123l-7.426-6.826-199.428 164.564zM450.497 89.547C488.837 134.304 512 192.448 512 255.999h-33.252c0-53.029-18.531-101.73-49.467-139.979l21.216-26.473z"/></svg>