<?xml version="1.0" encoding="utf-8"?><svg version="1.1" id="Layer_1" xmlns="http://www.w3.org/2000/svg" xmlns:xlink="http://www.w3.org/1999/xlink" x="0px" y="0px" viewBox="0 0 111.34 122.88" style="enable-background:new 0 0 111.34 122.88" xml:space="preserve"><g><path d="M84.78,17.66H23.35L5.71,28.49l17.7,12.05h61.38V17.66L84.78,17.66z M24.64,53.52h22.81v-9.14H22.87v0 c-0.34,0-0.69-0.09-1-0.28L0.91,30.05l0,0c-0.27-0.17-0.51-0.41-0.68-0.71c-0.51-0.92-0.17-2.09,0.75-2.59l20.79-12.58 c0.31-0.22,0.69-0.34,1.1-0.34h24.58V8.05L55,0l8.44,8.05v5.77H86.7c1.06,0,1.92,0.86,1.92,1.92v26.72c0,1.06-0.86,1.92-1.92,1.92 H63.44v9.14h25.03c0.41,0,0.78,0.13,1.1,0.34l20.79,12.58c0.92,0.51,1.26,1.67,0.75,2.59c-0.17,0.3-0.4,0.54-0.68,0.71l0,0 L89.47,83.8c-0.31,0.19-0.66,0.28-1,0.28v0H63.44v24.2H78.9c1.56,0,2.83,1.28,2.83,2.83v8.93c0,1.56-1.28,2.83-2.83,2.83H31.99 c-1.56,0-2.83-1.28-2.83-2.83v-6.8c0-2.73,2.23-4.96,4.96-4.96h13.33v-24.2H24.64c-1.06,0-1.92-0.86-1.92-1.92V55.44 C22.72,54.38,23.58,53.52,24.64,53.52L24.64,53.52z M88,57.36H26.56v22.88h61.38l17.7-12.05L88,57.36L88,57.36z"/></g></svg>