<svg width="24" height="25" viewBox="0 0 24 25" fill="none" xmlns="http://www.w3.org/2000/svg">
<g clip-path="url(#clip0_2540_72)">
<path fill-rule="evenodd" clip-rule="evenodd" d="M23.0625 9.75594L17.8125 3.75594C17.6705 3.59375 17.4656 3.50051 17.25 3.5H6.75C6.53443 3.50051 6.32951 3.59375 6.1875 3.75594L0.9375 9.75594C0.683778 10.0456 0.690666 10.4804 0.953438 10.7619L11.4534 22.0119C11.5953 22.1639 11.7939 22.2503 12.0019 22.2503C12.2098 22.2503 12.4085 22.1639 12.5503 22.0119L23.0503 10.7619C23.312 10.4794 23.3173 10.0447 23.0625 9.75594V9.75594ZM20.8472 9.5H16.875L13.5 5H16.9097L20.8472 9.5ZM6.99188 11L9.81656 18.0622L3.22594 11H6.99188ZM15.3919 11L12 19.4806L8.60812 11H15.3919ZM9 9.5L12 5.49969L15 9.5H9ZM17.0081 11H20.7741L14.1834 18.0622L17.0081 11ZM7.09031 5H10.5L7.125 9.5H3.15281L7.09031 5Z" fill="white"/>
</g>
<defs>
<clipPath id="clip0_2540_72">
<rect width="24" height="24" fill="white" transform="translate(0 0.5)"/>
</clipPath>
</defs>
</svg>
