<svg width="24" height="25" viewBox="0 0 24 25" fill="none" xmlns="http://www.w3.org/2000/svg">
<g clip-path="url(#clip0_2540_64)">
<path fill-rule="evenodd" clip-rule="evenodd" d="M22.4203 20.4144L17.1703 9.91438C17.0433 9.66033 16.7836 9.49986 16.4995 9.49986C16.2155 9.49986 15.9558 9.66033 15.8287 9.91438L13.7934 13.9859C12.1981 13.8962 10.6631 13.3452 9.375 12.3997C10.8863 10.7857 11.802 8.70463 11.9709 6.5H14.25C14.6642 6.5 15 6.16421 15 5.75C15 5.33579 14.6642 5 14.25 5H9V3.5C9 3.08579 8.66421 2.75 8.25 2.75C7.83579 2.75 7.5 3.08579 7.5 3.5V5H2.25C1.83579 5 1.5 5.33579 1.5 5.75C1.5 6.16421 1.83579 6.5 2.25 6.5H10.4653C10.2983 8.33811 9.51802 10.0667 8.25 11.4078C7.45984 10.5741 6.85306 9.58406 6.46875 8.50156C6.38274 8.2445 6.16471 8.05385 5.89848 8.0029C5.63224 7.95195 5.35922 8.04863 5.18438 8.25577C5.00953 8.46291 4.96007 8.74828 5.055 9.00219C5.50244 10.2677 6.20726 11.4267 7.125 12.4062C5.71197 13.4446 4.00353 14.0031 2.25 14C1.83579 14 1.5 14.3358 1.5 14.75C1.5 15.1642 1.83579 15.5 2.25 15.5C4.42555 15.5024 6.53875 14.7734 8.25 13.43C9.64648 14.5211 11.3135 15.2117 13.0725 15.4278L10.5787 20.4144C10.3934 20.7848 10.5434 21.2354 10.9139 21.4208C11.2844 21.6061 11.735 21.4561 11.9203 21.0856L13.2131 18.5H19.7859L21.0788 21.0856C21.2059 21.3398 21.4658 21.5002 21.75 21.5C22.0099 21.4999 22.2512 21.3652 22.3878 21.144C22.5243 20.9229 22.5366 20.6468 22.4203 20.4144V20.4144ZM13.9631 17L16.5 11.9272L19.0359 17H13.9631Z" fill="white"/>
</g>
<defs>
<clipPath id="clip0_2540_64">
<rect width="24" height="24" fill="white" transform="translate(0 0.5)"/>
</clipPath>
</defs>
</svg>
